<mxfile host="65bd71144e">
    <diagram id="Lk4SMB-QcM3hq6D4sjoN" name="Page-1">
        <mxGraphModel dx="1374" dy="902" grid="1" gridSize="10" guides="1" tooltips="1" connect="1" arrows="1" fold="1" page="1" pageScale="1" pageWidth="827" pageHeight="1169" math="0" shadow="0">
            <root>
                <mxCell id="0"/>
                <mxCell id="1" parent="0"/>
                <mxCell id="3" value="APPVUE" style="rounded=0;whiteSpace=wrap;html=1;fontStyle=1;verticalAlign=top;" vertex="1" parent="1">
                    <mxGeometry x="114" y="45" width="600" height="1080" as="geometry"/>
                </mxCell>
                <mxCell id="4" value="APPHEADER" style="rounded=0;whiteSpace=wrap;html=1;" vertex="1" parent="1">
                    <mxGeometry x="134" y="105" width="560" height="60" as="geometry"/>
                </mxCell>
                <mxCell id="5" value="MAIN" style="rounded=0;whiteSpace=wrap;html=1;verticalAlign=top;" vertex="1" parent="1">
                    <mxGeometry x="134" y="175" width="560" height="870" as="geometry"/>
                </mxCell>
                <mxCell id="6" value="APPFOOTER" style="rounded=0;whiteSpace=wrap;html=1;" vertex="1" parent="1">
                    <mxGeometry x="134" y="1055" width="560" height="60" as="geometry"/>
                </mxCell>
                <mxCell id="7" value="PORTFOLIO" style="rounded=0;whiteSpace=wrap;html=1;verticalAlign=top;" vertex="1" parent="1">
                    <mxGeometry x="149" y="220" width="530" height="240" as="geometry"/>
                </mxCell>
                <mxCell id="8" value="WORKING PROCESS" style="rounded=0;whiteSpace=wrap;html=1;verticalAlign=top;" vertex="1" parent="1">
                    <mxGeometry x="149" y="470" width="531" height="180" as="geometry"/>
                </mxCell>
                <mxCell id="9" value="CALL TO ACTION" style="rounded=0;whiteSpace=wrap;html=1;verticalAlign=top;" vertex="1" parent="1">
                    <mxGeometry x="149" y="660" width="531" height="140" as="geometry"/>
                </mxCell>
                <mxCell id="10" value="BLOG&lt;br&gt;" style="rounded=0;whiteSpace=wrap;html=1;verticalAlign=top;" vertex="1" parent="1">
                    <mxGeometry x="148" y="810" width="531" height="220" as="geometry"/>
                </mxCell>
                <mxCell id="11" value="CARD" style="whiteSpace=wrap;html=1;aspect=fixed;" vertex="1" parent="1">
                    <mxGeometry x="200" y="890" width="110" height="110" as="geometry"/>
                </mxCell>
            </root>
        </mxGraphModel>
    </diagram>
</mxfile>